<svg xmlns="http://www.w3.org/2000/svg" viewBox="0 0 557.26 184.54"><defs><style>.a{fill:#231f20;}.b{fill:#cd202a;}</style></defs><title>logo_vector</title><path d="M277.52,130.3h4.78l.73,14h.37c9.19-9.18,18.37-16.17,30.5-16.17,18,0,26.46,10.66,26.46,33.45v56.59h-5.51V162.27c0-19.48-6.25-29-21.32-29-11,0-19.11,5.88-30.5,17.64v67.25h-5.51Z" transform="translate(-21.28 -56.3)"/><path d="M376,195V135.44H362V131l14-.73.74-25.73h4.77V130.3h26.1v5.14h-26.1v60.27c0,11.39,2.58,19.48,15.44,19.48,3.31,0,8.08-1.47,11.39-2.94l1.84,4.78c-5.15,1.83-10.66,3.3-13.6,3.3C380.41,220.33,376,210,376,195Z" transform="translate(-21.28 -56.3)"/><path d="M426.34,101.63a6.25,6.25,0,0,1,12.5,0,6.25,6.25,0,1,1-12.5,0Zm3.31,28.67h5.52v87.83h-5.52Z" transform="translate(-21.28 -56.3)"/><path d="M470.44,85.46H476v100.7h.37l45.57-55.86h6.61l-28.29,34.54,33.44,53.29H527.4l-30.5-48.88L476,193.88v24.25h-5.51Z" transform="translate(-21.28 -56.3)"/><path class="a" d="M21.28,57.53H53.64v4.68H26.39V235.89H53.64v4.68H21.28Z" transform="translate(-21.28 -56.3)"/><path class="a" d="M545.93,236.12h27.46V61H545.93V56.3h32.61V240.84H545.93Z" transform="translate(-21.28 -56.3)"/><path class="b" d="M146.28,122.3H165V125H149.24V225.56H165v2.71H146.28Z" transform="translate(-21.28 -56.3)"/><path d="M67.62,85.46h5.51v100.7h.37l45.57-55.86h6.62l-28.3,34.54,33.44,53.29h-6.25l-30.5-48.88-21,24.63v24.25H67.62Z" transform="translate(-21.28 -56.3)"/><path d="M165.4,177c0-27.05,16.57-42.6,35.84-42.6S237.08,150,237.08,177c0,26.71-16.57,42.26-35.84,42.26S165.4,203.71,165.4,177Zm66.27,0c0-22.32-13.18-37.87-30.43-37.87S170.81,154.68,170.81,177s13.19,37.53,30.43,37.53S231.67,199.31,231.67,177Z" transform="translate(-21.28 -56.3)"/><path class="b" d="M236.63,224.25H252.4V123.7H236.63V121h18.73V227H236.63Z" transform="translate(-21.28 -56.3)"/></svg>